<?xml version="1.0" encoding="utf-8"?>
<!-- Generator: Adobe Illustrator 17.0.0, SVG Export Plug-In . SVG Version: 6.00 Build 0)  -->
<!DOCTYPE svg PUBLIC "-//W3C//DTD SVG 1.1//EN" "http://www.w3.org/Graphics/SVG/1.1/DTD/svg11.dtd">
<svg version="1.1" id="Layer_1" xmlns="http://www.w3.org/2000/svg" xmlns:xlink="http://www.w3.org/1999/xlink" x="0px" y="0px"
	 width="100px" height="48.125px" viewBox="0 25.875 100 48.125" enable-background="new 0 25.875 100 48.125" xml:space="preserve"
	>
<line fill="none" x1="38.25" y1="25.875" x2="67.125" y2="25.875"/>
<g>
	<ellipse fill="#FF4848" cx="24.308" cy="50" rx="24.068" ry="22.706"/>
	<g>
		<path fill="#FFFFFF" d="M22.887,52.178h-4.736l-0.991,2.848h-2.208L19.57,42.8h1.906l4.627,12.226h-2.217L22.887,52.178z
			 M18.748,50.466h3.543l-1.772-5.072L18.748,50.466z"/>
		<path fill="#FFFFFF" d="M29.42,45.94v9.892c0,0.928-0.23,1.639-0.693,2.128c-0.461,0.489-1.137,0.734-2.027,0.734
			c-0.179,0-0.363-0.012-0.554-0.036c-0.191-0.026-0.367-0.062-0.529-0.106V56.94c0.118,0.026,0.242,0.048,0.373,0.058
			c0.132,0.012,0.248,0.017,0.349,0.017c0.336,0,0.594-0.091,0.773-0.271c0.179-0.182,0.269-0.487,0.269-0.912V45.94H29.42z
			 M27.203,43.581c0-0.313,0.1-0.573,0.297-0.781c0.199-0.208,0.483-0.311,0.853-0.311s0.655,0.103,0.856,0.311
			c0.202,0.208,0.302,0.468,0.302,0.781c0,0.308-0.101,0.564-0.302,0.769c-0.202,0.204-0.487,0.306-0.856,0.306
			s-0.654-0.102-0.853-0.306C27.303,44.144,27.203,43.889,27.203,43.581z"/>
		<path fill="#FFFFFF" d="M37.027,55.026c-0.056-0.108-0.102-0.233-0.138-0.379c-0.037-0.144-0.07-0.302-0.097-0.47
			c-0.134,0.142-0.284,0.271-0.45,0.396c-0.164,0.122-0.347,0.23-0.545,0.324c-0.199,0.091-0.415,0.163-0.648,0.218
			c-0.232,0.053-0.48,0.079-0.743,0.079c-0.453,0-0.871-0.07-1.251-0.206c-0.38-0.137-0.707-0.326-0.979-0.571
			c-0.271-0.242-0.483-0.53-0.638-0.861c-0.154-0.329-0.23-0.689-0.23-1.075c0-0.487,0.092-0.916,0.277-1.293
			c0.185-0.374,0.453-0.688,0.806-0.94s0.786-0.444,1.297-0.575c0.513-0.132,1.096-0.198,1.751-0.198h1.285v-0.596
			c0-0.47-0.132-0.847-0.395-1.13c-0.263-0.282-0.663-0.423-1.201-0.423c-0.241,0-0.459,0.032-0.655,0.097
			c-0.196,0.064-0.362,0.151-0.5,0.259c-0.137,0.11-0.242,0.24-0.319,0.391c-0.074,0.151-0.113,0.313-0.113,0.487h-2.04
			c0-0.359,0.088-0.704,0.265-1.036c0.175-0.333,0.426-0.631,0.751-0.89c0.325-0.262,0.717-0.469,1.18-0.626
			c0.461-0.157,0.978-0.235,1.549-0.235c0.51,0,0.98,0.066,1.411,0.197c0.431,0.132,0.804,0.329,1.117,0.588
			c0.313,0.262,0.557,0.585,0.731,0.974c0.174,0.39,0.26,0.844,0.26,1.365v4.031c0,0.816,0.115,1.468,0.344,1.955v0.144
			L37.027,55.026L37.027,55.026z M34.785,53.555c0.235,0,0.455-0.031,0.66-0.091c0.204-0.062,0.389-0.144,0.554-0.245
			c0.164-0.101,0.308-0.216,0.432-0.348s0.221-0.264,0.294-0.398V50.76h-1.1c-0.756,0-1.324,0.132-1.705,0.393
			c-0.38,0.264-0.571,0.636-0.571,1.118c0,0.185,0.031,0.355,0.092,0.511c0.061,0.158,0.154,0.293,0.277,0.408
			c0.124,0.115,0.272,0.204,0.45,0.269C34.344,53.524,34.55,53.555,34.785,53.555z"/>
		<path fill="#FFFFFF" d="M43.955,52.104l1.847-6.164h2.175l-3.611,10.463c-0.084,0.228-0.194,0.477-0.331,0.744
			c-0.138,0.264-0.317,0.513-0.537,0.741c-0.222,0.23-0.492,0.422-0.811,0.576s-0.699,0.23-1.142,0.23
			c-0.174,0-0.345-0.014-0.516-0.046c-0.172-0.031-0.326-0.065-0.467-0.106v-1.579c0.05,0.012,0.116,0.019,0.198,0.022
			c0.08,0.002,0.144,0.005,0.188,0.005c0.252,0,0.471-0.022,0.659-0.062c0.188-0.043,0.351-0.113,0.492-0.211
			c0.14-0.098,0.26-0.223,0.361-0.377c0.101-0.156,0.191-0.348,0.269-0.576l0.294-0.782l-3.191-9.043h2.2L43.955,52.104z"/>
		<path fill="#FFFFFF" d="M58.12,50.315h-2.368v4.711h-2.124V42.8h4.299c0.699,0,1.324,0.079,1.873,0.24
			c0.547,0.158,1.01,0.393,1.389,0.705c0.377,0.309,0.665,0.695,0.861,1.154c0.194,0.459,0.293,0.991,0.293,1.595
			c0,0.817-0.197,1.502-0.593,2.054c-0.393,0.551-0.943,0.975-1.648,1.272l2.745,5.096v0.11h-2.274L58.12,50.315z M55.752,48.61
			h2.183c0.38,0,0.714-0.05,0.999-0.151s0.522-0.241,0.714-0.42c0.19-0.179,0.333-0.392,0.427-0.638
			c0.096-0.246,0.144-0.518,0.144-0.814c0-0.313-0.046-0.597-0.134-0.853c-0.091-0.254-0.228-0.473-0.413-0.655
			c-0.185-0.181-0.42-0.321-0.71-0.42c-0.288-0.097-0.633-0.146-1.036-0.146h-2.175L55.752,48.61L55.752,48.61z"/>
		<path fill="#FFFFFF" d="M69.591,55.026c-0.058-0.108-0.103-0.233-0.139-0.379c-0.036-0.144-0.07-0.302-0.096-0.47
			c-0.134,0.142-0.285,0.271-0.451,0.396c-0.163,0.122-0.345,0.23-0.545,0.324c-0.199,0.091-0.415,0.163-0.648,0.218
			c-0.23,0.053-0.48,0.079-0.741,0.079c-0.453,0-0.871-0.07-1.252-0.206c-0.379-0.137-0.705-0.326-0.979-0.571
			c-0.271-0.242-0.482-0.53-0.638-0.861c-0.154-0.329-0.23-0.689-0.23-1.075c0-0.487,0.094-0.916,0.278-1.293
			c0.185-0.374,0.453-0.688,0.806-0.94s0.785-0.444,1.296-0.575c0.513-0.132,1.096-0.198,1.751-0.198h1.286v-0.596
			c0-0.47-0.132-0.847-0.396-1.13c-0.261-0.282-0.662-0.423-1.2-0.423c-0.242,0-0.461,0.032-0.655,0.097
			c-0.197,0.064-0.362,0.151-0.501,0.259c-0.137,0.11-0.242,0.24-0.319,0.391c-0.074,0.151-0.113,0.313-0.113,0.487h-2.039
			c0-0.359,0.086-0.704,0.264-1.036c0.175-0.333,0.427-0.631,0.751-0.89c0.326-0.262,0.717-0.469,1.18-0.626
			c0.461-0.157,0.979-0.235,1.55-0.235c0.509,0,0.979,0.066,1.411,0.197c0.429,0.132,0.804,0.329,1.116,0.588
			c0.314,0.262,0.557,0.585,0.732,0.974c0.173,0.39,0.259,0.844,0.259,1.365v4.031c0,0.816,0.115,1.468,0.345,1.955v0.144
			L69.591,55.026L69.591,55.026z M67.348,53.555c0.235,0,0.456-0.031,0.66-0.091c0.204-0.062,0.389-0.144,0.554-0.245
			c0.166-0.101,0.309-0.216,0.432-0.348c0.125-0.132,0.221-0.264,0.295-0.398V50.76h-1.101c-0.756,0-1.324,0.132-1.703,0.393
			c-0.381,0.264-0.571,0.636-0.571,1.118c0,0.185,0.031,0.355,0.091,0.511c0.062,0.158,0.154,0.293,0.278,0.408
			c0.122,0.115,0.271,0.204,0.449,0.269C66.906,53.524,67.113,53.555,67.348,53.555z"/>
		<path fill="#FFFFFF" d="M81.447,52.212l1.444-6.272h1.989l-2.476,9.086h-1.679l-1.948-6.239l-1.914,6.239h-1.679l-2.485-9.086
			h1.989l1.471,6.205l1.864-6.205h1.535L81.447,52.212z"/>
		<path fill="#FFFFFF" d="M91.675,55.026c-0.058-0.108-0.103-0.233-0.139-0.379c-0.036-0.144-0.07-0.302-0.096-0.47
			c-0.134,0.142-0.285,0.271-0.451,0.396c-0.163,0.122-0.345,0.23-0.545,0.324c-0.199,0.091-0.415,0.163-0.648,0.218
			c-0.23,0.053-0.48,0.079-0.741,0.079c-0.453,0-0.871-0.07-1.252-0.206c-0.379-0.137-0.705-0.326-0.979-0.571
			c-0.271-0.242-0.482-0.53-0.638-0.861c-0.154-0.329-0.23-0.689-0.23-1.075c0-0.487,0.094-0.916,0.278-1.293
			c0.185-0.374,0.453-0.688,0.806-0.94s0.785-0.444,1.296-0.575c0.513-0.132,1.096-0.198,1.751-0.198h1.286v-0.596
			c0-0.47-0.132-0.847-0.396-1.13c-0.262-0.282-0.662-0.423-1.2-0.423c-0.242,0-0.461,0.032-0.655,0.097
			c-0.197,0.064-0.362,0.151-0.501,0.259c-0.137,0.11-0.242,0.24-0.319,0.391c-0.074,0.151-0.113,0.313-0.113,0.487H86.15
			c0-0.359,0.086-0.704,0.264-1.036c0.175-0.333,0.427-0.631,0.751-0.89c0.326-0.262,0.717-0.469,1.18-0.626
			c0.461-0.157,0.979-0.235,1.55-0.235c0.509,0,0.979,0.066,1.411,0.197c0.429,0.132,0.804,0.329,1.116,0.588
			c0.314,0.262,0.557,0.585,0.732,0.974c0.173,0.39,0.259,0.844,0.259,1.365v4.031c0,0.816,0.115,1.468,0.345,1.955v0.144
			L91.675,55.026L91.675,55.026z M89.432,53.555c0.235,0,0.456-0.031,0.66-0.091c0.204-0.062,0.389-0.144,0.554-0.245
			c0.166-0.101,0.309-0.216,0.432-0.348c0.125-0.132,0.221-0.264,0.295-0.398V50.76h-1.101c-0.756,0-1.324,0.132-1.703,0.393
			c-0.381,0.264-0.571,0.636-0.571,1.118c0,0.185,0.031,0.355,0.091,0.511c0.062,0.158,0.154,0.293,0.278,0.408
			c0.122,0.115,0.271,0.204,0.449,0.269C88.99,53.524,89.197,53.555,89.432,53.555z"/>
		<path fill="#FFFFFF" d="M98.107,43.732v2.208h1.603v1.511h-1.603v5.072c0,0.206,0.022,0.374,0.067,0.504
			c0.043,0.127,0.108,0.228,0.192,0.297c0.084,0.07,0.185,0.118,0.297,0.144c0.115,0.024,0.242,0.036,0.384,0.036
			c0.139,0,0.276-0.01,0.405-0.029c0.132-0.019,0.235-0.038,0.307-0.055V55c-0.161,0.046-0.35,0.089-0.566,0.132
			c-0.216,0.041-0.475,0.062-0.777,0.062c-0.336,0-0.648-0.046-0.936-0.134c-0.288-0.091-0.537-0.235-0.749-0.437
			c-0.209-0.202-0.372-0.465-0.489-0.789c-0.118-0.326-0.178-0.722-0.178-1.192v-5.19h-1.495V45.94h1.495v-2.208H98.107z"/>
	</g>
</g>
</svg>
